<svg width="479" height="135" viewBox="0 0 479 135" fill="none" xmlns="http://www.w3.org/2000/svg">
<path d="M65.4737 60.045H131.091V68.235C131.091 77.465 129.531 86.0775 126.411 94.0725C123.356 102.067 118.969 109.087 113.249 115.132C107.529 121.177 100.704 125.89 92.7737 129.27C84.8437 132.65 76.0687 134.34 66.4487 134.34C56.5037 134.34 47.4687 132.65 39.3437 129.27C31.2837 125.825 24.3287 121.047 18.4787 114.937C12.6287 108.827 8.14369 101.742 5.02369 93.6825C1.90369 85.5575 0.343692 76.8475 0.343692 67.5525C0.343692 58.3225 1.90369 49.6775 5.02369 41.6175C8.14369 33.4925 12.6287 26.4075 18.4787 20.3625C24.3287 14.2525 31.2837 9.50749 39.3437 6.1275C47.4687 2.68249 56.5037 0.95999 66.4487 0.95999C74.5737 0.95999 81.7237 1.83749 87.8987 3.5925C94.1387 5.34749 99.5012 7.68749 103.986 10.6125C108.471 13.5375 112.274 16.755 115.394 20.265C118.514 23.71 121.114 27.09 123.194 30.405L95.5037 43.47C92.8387 39.375 89.1987 35.8 84.5837 32.745C80.0337 29.69 73.9887 28.1625 66.4487 28.1625C61.1837 28.1625 56.3412 29.2025 51.9212 31.2825C47.5662 33.3625 43.7962 36.2225 40.6112 39.8625C37.4262 43.4375 34.9562 47.63 33.2012 52.44C31.5112 57.185 30.6662 62.2225 30.6662 67.5525C30.6662 72.9475 31.5112 78.0175 33.2012 82.7625C34.9562 87.5075 37.4262 91.7 40.6112 95.34C43.7962 98.98 47.5662 101.84 51.9212 103.92C56.3412 105.935 61.1837 106.943 66.4487 106.943C71.0637 106.943 75.2562 106.357 79.0262 105.187C82.7962 104.017 86.0462 102.327 88.7762 100.117C91.5712 97.9075 93.7487 95.3075 95.3087 92.3175C96.9337 89.2625 97.9087 85.915 98.2337 82.275H65.4737V60.045ZM174.06 67.5525C174.06 74.8975 175.555 81.56 178.545 87.54C181.6 93.455 185.792 98.1675 191.122 101.677C196.517 105.187 202.757 106.943 209.842 106.943C216.927 106.943 223.135 105.187 228.465 101.677C233.86 98.1675 238.052 93.455 241.042 87.54C244.097 81.56 245.625 74.8975 245.625 67.5525C245.625 60.2075 244.097 53.5775 241.042 47.6625C238.052 41.7475 233.86 37.035 228.465 33.525C223.135 29.95 216.927 28.1625 209.842 28.1625C202.757 28.1625 196.517 29.95 191.122 33.525C185.792 37.035 181.6 41.7475 178.545 47.6625C175.555 53.5775 174.06 60.2075 174.06 67.5525ZM143.737 67.5525C143.737 58.1925 145.395 49.4825 148.71 41.4225C152.025 33.2975 156.672 26.2125 162.652 20.1675C168.632 14.1225 175.652 9.41 183.712 6.02999C191.772 2.64999 200.482 0.95999 209.842 0.95999C219.332 0.95999 228.075 2.64999 236.07 6.02999C244.13 9.41 251.117 14.1225 257.032 20.1675C263.012 26.2125 267.627 33.2975 270.877 41.4225C274.192 49.4825 275.85 58.1925 275.85 67.5525C275.85 76.9775 274.257 85.7525 271.072 93.8775C267.887 101.937 263.337 109.022 257.422 115.132C251.507 121.177 244.52 125.89 236.46 129.27C228.4 132.65 219.527 134.34 209.842 134.34C199.962 134.34 190.96 132.65 182.835 129.27C174.775 125.89 167.82 121.177 161.97 115.132C156.12 109.022 151.602 101.937 148.417 93.8775C145.297 85.7525 143.737 76.9775 143.737 67.5525ZM346.964 79.2525V107.332H322.881V79.2525H294.801V55.365H322.881V27.285H346.964V55.365H374.849V79.2525H346.964ZM450.558 79.2525V107.332H426.475V79.2525H398.395V55.365H426.475V27.285H450.558V55.365H478.443V79.2525H450.558Z" fill="#00ADD8"/>
</svg>
